<svg xmlns="http://www.w3.org/2000/svg" width="800" height="480" viewBox="0 0 800 480">
  <rect width="800" height="480" fill="#0d1117"/>
  <text x="400" y="35" text-anchor="middle" fill="#e6edf3" font-family="system-ui,sans-serif" font-size="17" font-weight="bold">PCA Projection: Normal vs Anomalous Buildings</text>
  <text x="400" y="56" text-anchor="middle" fill="#8b949e" font-family="system-ui,sans-serif" font-size="12">2-component PCA on EPC features. Isolation Forest anomaly scores overlaid.</text>
  <rect x="70" y="70" width="660" height="350" fill="#161b22" rx="4"/>
  <g stroke="#21262d" stroke-width="1">
    <line x1="70" y1="70" x2="730" y2="70"/><line x1="70" y1="140" x2="730" y2="140"/>
    <line x1="70" y1="210" x2="730" y2="210"/><line x1="70" y1="280" x2="730" y2="280"/>
    <line x1="70" y1="350" x2="730" y2="350"/><line x1="70" y1="420" x2="730" y2="420"/>
    <line x1="70" y1="70" x2="70" y2="420"/><line x1="202" y1="70" x2="202" y2="420"/>
    <line x1="334" y1="70" x2="334" y2="420"/><line x1="466" y1="70" x2="466" y2="420"/>
    <line x1="598" y1="70" x2="598" y2="420"/><line x1="730" y1="70" x2="730" y2="420"/>
  </g>
  <g opacity="0.5">
    <circle cx="295" cy="255" r="3" fill="#388bfd"/><circle cx="310" cy="240" r="3" fill="#388bfd"/>
    <circle cx="325" cy="250" r="3" fill="#388bfd"/><circle cx="315" cy="265" r="3" fill="#388bfd"/>
    <circle cx="305" cy="245" r="3" fill="#388bfd"/><circle cx="335" cy="255" r="3" fill="#388bfd"/>
    <circle cx="290" cy="265" r="3" fill="#388bfd"/><circle cx="320" cy="235" r="3" fill="#388bfd"/>
    <circle cx="340" cy="245" r="3" fill="#388bfd"/><circle cx="300" cy="270" r="3" fill="#388bfd"/>
    <circle cx="350" cy="260" r="3" fill="#388bfd"/><circle cx="280" cy="255" r="3" fill="#388bfd"/>
    <circle cx="330" cy="275" r="3" fill="#388bfd"/><circle cx="345" cy="235" r="3" fill="#388bfd"/>
    <circle cx="315" cy="280" r="3" fill="#388bfd"/><circle cx="285" cy="240" r="3" fill="#388bfd"/>
    <circle cx="360" cy="250" r="3" fill="#388bfd"/><circle cx="275" cy="270" r="3" fill="#388bfd"/>
    <circle cx="355" cy="270" r="3" fill="#388bfd"/><circle cx="295" cy="230" r="3" fill="#388bfd"/>
    <circle cx="365" cy="240" r="3" fill="#388bfd"/><circle cx="270" cy="260" r="3" fill="#388bfd"/>
    <circle cx="340" cy="285" r="3" fill="#388bfd"/><circle cx="310" cy="225" r="3" fill="#388bfd"/>
    <circle cx="375" cy="255" r="3" fill="#388bfd"/><circle cx="265" cy="245" r="3" fill="#388bfd"/>
    <circle cx="320" cy="295" r="3" fill="#388bfd"/><circle cx="350" cy="225" r="3" fill="#388bfd"/>
    <circle cx="380" cy="265" r="3" fill="#388bfd"/><circle cx="260" cy="265" r="3" fill="#388bfd"/>
    <circle cx="305" cy="215" r="3" fill="#388bfd"/><circle cx="370" cy="275" r="3" fill="#388bfd"/>
    <circle cx="255" cy="255" r="3" fill="#388bfd"/><circle cx="335" cy="295" r="3" fill="#388bfd"/>
    <circle cx="385" cy="240" r="3" fill="#388bfd"/><circle cx="285" cy="285" r="3" fill="#388bfd"/>
    <circle cx="360" cy="285" r="3" fill="#388bfd"/><circle cx="295" cy="210" r="3" fill="#388bfd"/>
    <circle cx="375" cy="230" r="3" fill="#388bfd"/><circle cx="250" cy="275" r="3" fill="#388bfd"/>
    <circle cx="245" cy="250" r="3" fill="#388bfd"/><circle cx="390" cy="255" r="3" fill="#388bfd"/>
    <circle cx="315" cy="300" r="3" fill="#388bfd"/><circle cx="365" cy="300" r="3" fill="#388bfd"/>
    <circle cx="240" cy="260" r="3" fill="#388bfd"/><circle cx="395" cy="270" r="3" fill="#388bfd"/>
    <circle cx="280" cy="300" r="3" fill="#388bfd"/><circle cx="370" cy="215" r="3" fill="#388bfd"/>
  </g>
  <g opacity="0.85">
    <circle cx="575" cy="135" r="5" fill="#f85149"/><circle cx="610" cy="120" r="5" fill="#f85149"/>
    <circle cx="590" cy="155" r="5" fill="#f85149"/><circle cx="625" cy="140" r="5" fill="#f85149"/>
    <circle cx="560" cy="145" r="5" fill="#f85149"/><circle cx="640" cy="125" r="5" fill="#f85149"/>
    <circle cx="615" cy="165" r="5" fill="#f85149"/><circle cx="555" cy="130" r="5" fill="#f85149"/>
    <circle cx="650" cy="150" r="5" fill="#f85149"/><circle cx="600" cy="115" r="5" fill="#f85149"/>
    <circle cx="630" cy="170" r="5" fill="#f85149"/><circle cx="545" cy="155" r="5" fill="#f85149"/>
    <circle cx="660" cy="135" r="5" fill="#f85149"/><circle cx="580" cy="110" r="5" fill="#f85149"/>
    <circle cx="645" cy="175" r="5" fill="#f85149"/><circle cx="535" cy="140" r="5" fill="#f85149"/>
    <circle cx="665" cy="155" r="5" fill="#f85149"/><circle cx="620" cy="105" r="5" fill="#f85149"/>
    <circle cx="570" cy="100" r="5" fill="#f85149"/><circle cx="655" cy="115" r="5" fill="#f85149"/>
  </g>
  <text x="400" y="445" text-anchor="middle" fill="#8b949e" font-family="system-ui,sans-serif" font-size="13">PC1 (Energy Consumption + CO2 Emissions, 54.3% variance explained)</text>
  <text x="28" y="245" text-anchor="middle" fill="#8b949e" font-family="system-ui,sans-serif" font-size="13" transform="rotate(-90,28,245)">PC2 (Floor Area + Cost, 21.7%)</text>
  <g fill="#8b949e" font-family="system-ui,sans-serif" font-size="11" text-anchor="middle">
    <text x="70" y="435">-3</text><text x="202" y="435">-2</text><text x="334" y="435">-1</text>
    <text x="466" y="435">0</text><text x="598" y="435">1</text><text x="730" y="435">2</text>
  </g>
  <rect x="580" y="310" width="140" height="70" fill="#21262d" rx="4" stroke="#30363d" stroke-width="1"/>
  <circle cx="598" cy="332" r="5" fill="#388bfd" opacity="0.7"/>
  <text x="612" y="337" fill="#e6edf3" font-family="system-ui,sans-serif" font-size="12">Normal (97.7%)</text>
  <circle cx="598" cy="358" r="5" fill="#f85149"/>
  <text x="612" y="363" fill="#e6edf3" font-family="system-ui,sans-serif" font-size="12">Anomalous (2.3%)</text>
  <defs><marker id="arr" markerWidth="6" markerHeight="6" refX="3" refY="3" orient="auto"><path d="M0,0 L6,3 L0,6 Z" fill="#e3b341"/></marker></defs>
  <path d="M 510 160 L 555 148" stroke="#e3b341" stroke-width="1.5" marker-end="url(#arr)" fill="none"/>
  <text x="450" y="158" fill="#e3b341" font-family="system-ui,sans-serif" font-size="11">Pre-1930 solid wall</text>
  <text x="440" y="172" fill="#e3b341" font-family="system-ui,sans-serif" font-size="11">no insulation cluster</text>
</svg>
